<?xml version="1.0" standalone="no"?>
<!DOCTYPE svg PUBLIC "-//W3C//DTD SVG 20010904//EN"
 "http://www.w3.org/TR/2001/REC-SVG-20010904/DTD/svg10.dtd">
<svg version="1.0" xmlns="http://www.w3.org/2000/svg"
 width="16.000000pt" height="16.000000pt" viewBox="0 0 16.000000 16.000000"
 preserveAspectRatio="xMidYMid meet">

<g transform="translate(0.000000,16.000000) scale(0.100000,-0.100000)"
fill="#000000" stroke="none">
<path d="M55 150 c-12 -4 -25 -14 -31 -21 -14 -19 -26 -51 -16 -45 5 3 38 6
75 7 70 2 82 12 50 41 -24 21 -54 28 -78 18z"/>
<path d="M53 62 c-24 -2 -43 -7 -43 -11 0 -18 42 -44 70 -44 27 0 70 26 70 43
0 10 -46 16 -97 12z"/>
</g>
</svg>
